<?xml version="1.0" encoding="utf-8"?>
<svg xmlns="http://www.w3.org/2000/svg" height="256" width="256" viewBox="0 0 256 256">
  <g>
    <path id="path1" transform="rotate(0,128,128) translate(79.0076549653801,79) scale(3.06250018253924,3.06250018253924)  " fill="#FF2121" d="M10.661012,7.5689991L7.5990001,10.650999 12.939089,15.997999 7.5990001,21.336999 10.661012,24.405 16.007082,19.065 21.369997,24.405 24.430058,21.336999 24.429081,21.336 19.088991,15.998999 24.429081,10.662001 21.345095,7.5819996 16.007082,12.919001z M15.997072,0C24.828983,0 31.994999,7.1770013 31.994999,15.999998 31.994999,24.826997 24.828007,31.999999 15.997072,31.999999 7.1569835,31.999999 1.5270052E-07,24.826997 0,15.999998 1.5270052E-07,7.1799997 7.1569835,0 15.997072,0z" />
  </g>
</svg>

